<svg width="1em" height="1em" viewBox="0 0 16 16" fill="currentColor" 
  xmlns="http://www.w3.org/2000/svg">
  <symbol id="emoji-smile" viewBox="0 0 16 16">
    <path fill-rule="evenodd" d="M8 15A7 7 0 1 0 8 1a7 7 0 0 0 0 14zm0 1A8 8 0 1 0 8 0a8 8 0 0 0 0 16z"/>
    <path fill-rule="evenodd" d="M4.285 9.567a.5.5 0 0 1 .683.183A3.498 3.498 0 0 0 8 11.5a3.498 3.498 0 0 0 3.032-1.75.5.5 0 1 1 .866.5A4.498 4.498 0 0 1 8 12.5a4.498 4.498 0 0 1-3.898-2.25.5.5 0 0 1 .183-.683z"/>
    <path d="M7 6.5C7 7.328 6.552 8 6 8s-1-.672-1-1.5S5.448 5 6 5s1 .672 1 1.5zm4 0c0 .828-.448 1.5-1 1.5s-1-.672-1-1.5S9.448 5 10 5s1 .672 1 1.5z"/>
  </symbol>
  <symbol id="emoji-frown" viewBox="0 0 16 16">
    <path fill-rule="evenodd" d="M8 15A7 7 0 1 0 8 1a7 7 0 0 0 0 14zm0 1A8 8 0 1 0 8 0a8 8 0 0 0 0 16z"/>
    <path fill-rule="evenodd" d="M4.285 12.433a.5.5 0 0 0 .683-.183A3.498 3.498 0 0 1 8 10.5c1.295 0 2.426.703 3.032 1.75a.5.5 0 0 0 .866-.5A4.498 4.498 0 0 0 8 9.5a4.5 4.5 0 0 0-3.898 2.25.5.5 0 0 0 .183.683z"/>
    <path d="M7 6.5C7 7.328 6.552 8 6 8s-1-.672-1-1.5S5.448 5 6 5s1 .672 1 1.5zm4 0c0 .828-.448 1.5-1 1.5s-1-.672-1-1.5S9.448 5 10 5s1 .672 1 1.5z"/>
  </symbol>
  <symbol id="icon-timer" viewBox="0 0 16 16">
    <path fill-rule="evenodd" d="M8 15A7 7 0 1 0 8 1a7 7 0 0 0 0 14zm8-7A8 8 0 1 1 0 8a8 8 0 0 1 16 0z"/>
    <path fill-rule="evenodd" d="M7.5 3a.5.5 0 0 1 .5.5v5.21l3.248 1.856a.5.5 0 0 1-.496.868l-3.5-2A.5.5 0 0 1 7 9V3.5a.5.5 0 0 1 .5-.5z"/>
  </symbol>
  <symbol id="icon-hourglass" viewBox="0 0 32 32">
    <path d="M22.781 16c4.305-2.729 7.219-7.975 7.219-14 0-0.677-0.037-1.345-0.109-2h-27.783c-0.072 0.655-0.109 1.323-0.109 2 0 6.025 2.914 11.271 7.219 14-4.305 2.729-7.219 7.975-7.219 14 0 0.677 0.037 1.345 0.109 2h27.783c0.072-0.655 0.109-1.323 0.109-2 0-6.025-2.914-11.271-7.219-14zM5 30c0-5.841 2.505-10.794 7-12.428v-3.143c-4.495-1.634-7-6.587-7-12.428v0h22c0 5.841-2.505 10.794-7 12.428v3.143c4.495 1.634 7 6.587 7 12.428h-22zM19.363 20.925c-2.239-1.27-2.363-2.918-2.363-3.918v-2.007c0-1 0.119-2.654 2.367-3.927 1.203-0.699 2.244-1.761 3.033-3.073h-12.799c0.79 1.313 1.832 2.376 3.036 3.075 2.239 1.27 2.363 2.918 2.363 3.918v2.007c0 1-0.119 2.654-2.367 3.927-2.269 1.318-3.961 3.928-4.472 7.073h15.677c-0.511-3.147-2.204-5.758-4.475-7.075z"></path>
  </symbol>

  <symbol id="icon-location" viewBox="0 0 512 512">
    <path d="M256 0c-88.366 0-160 71.634-160 160 0 160 160 352 160 352s160-192 160-352c0-88.366-71.635-160-160-160zM256 258c-54.124 0-98-43.876-98-98s43.876-98 98-98 98 43.876 98 98-43.876 98-98 98zM194 160c0-34.242 27.758-62 62-62s62 27.758 62 62c0 34.242-27.759 62-62 62s-62-27.758-62-62z"></path>
  </symbol>
  <symbol id="icon-finish" viewBox="0 0 512 512">
    <g>
      <path d="M496,16c-8.836,0-16,7.164-16,16v16H32V32c0-8.836-7.164-16-16-16S0,23.164,0,32v32v192v224
		c0,8.836,7.164,16,16,16s16-7.164,16-16V272h448v208c0,8.836,7.164,16,16,16s16-7.164,16-16V256V64V32
		C512,23.164,504.836,16,496,16z M416,240v-80h-80v80h-80v-80h-80v80H96v-80H32V80h64v80h80V80h80v80h80V80h80v80h64v80H416z"/>
    </g>
  </symbol>
  <symbol id="icon-info" viewBox="0 0 512 512">
    <path d="M224 152c0-13.2 10.8-24 24-24h16c13.2 0 24 10.8 24 24v16c0 13.2-10.8 24-24 24h-16c-13.2 0-24-10.8-24-24v-16z"></path>
    <path d="M320 384h-128v-32h32v-96h-32v-32h96v128h32z"></path>
    <path d="M256 0c-141.385 0-256 114.615-256 256s114.615 256 256 256 256-114.615 256-256-114.615-256-256-256zM256 464c-114.875 0-208-93.125-208-208s93.125-208 208-208 208 93.125 208 208-93.125 208-208 208z"></path>
  </symbol>
  <symbol id="icon-volume-high" viewBox="0 0 544 512">
    <path d="M445.020 461.020c-6.143 0-12.283-2.343-16.971-7.028-9.372-9.373-9.372-24.568 0-33.941 43.819-43.821 67.952-102.080 67.952-164.050 0-61.969-24.133-120.229-67.952-164.049-9.372-9.373-9.372-24.569 0-33.941s24.569-9.372 33.941 0c52.885 52.886 82.011 123.2 82.011 197.99s-29.126 145.104-82.011 197.99c-4.686 4.686-10.828 7.029-16.97 7.029zM359.765 415.765c-6.143 0-12.283-2.343-16.971-7.028-9.372-9.372-9.372-24.568 0-33.941 65.503-65.503 65.503-172.085 0-237.588-9.372-9.373-9.372-24.569 0-33.941 9.372-9.371 24.569-9.372 33.941 0 40.797 40.795 63.265 95.037 63.265 152.733s-22.468 111.938-63.265 152.735c-4.686 4.687-10.828 7.030-16.97 7.030v0zM274.51 370.51c-6.143 0-12.284-2.343-16.971-7.029-9.373-9.373-9.373-24.567 0-33.94 40.55-40.55 40.55-106.529 0-147.078-9.373-9.373-9.373-24.569 0-33.941s24.568-9.372 33.941 0c59.265 59.265 59.265 155.696 0 214.961-4.686 4.684-10.828 7.027-16.97 7.027z"></path>
    <path d="M208.003 480c-4.164 0-8.256-1.625-11.317-4.687l-123.313-123.313h-57.373c-8.836 0-16-7.163-16-16v-160c0-8.836 7.164-16 16-16h57.373l123.313-123.314c4.577-4.577 11.458-5.945 17.437-3.468s9.877 8.311 9.877 14.782v416c0 6.472-3.898 12.306-9.877 14.782-1.979 0.82-4.059 1.218-6.12 1.218z"></path>
  </symbol>
  <symbol id="icon-check-circle" viewBox="0 0 16 16">
    <path fill-rule="evenodd" d="M15.354 2.646a.5.5 0 0 1 0 .708l-7 7a.5.5 0 0 1-.708 0l-3-3a.5.5 0 1 1 .708-.708L8 9.293l6.646-6.647a.5.5 0 0 1 .708 0z"/>
    <path fill-rule="evenodd" d="M8 2.5A5.5 5.5 0 1 0 13.5 8a.5.5 0 0 1 1 0 6.5 6.5 0 1 1-3.25-5.63.5.5 0 1 1-.5.865A5.472 5.472 0 0 0 8 2.5z"/>
  </symbol>
  <symbol id="icon-pause" viewBox="0 0 512 512">
    <path d="M256 0c-141.385 0-256 114.615-256 256s114.615 256 256 256 256-114.615 256-256-114.615-256-256-256zM256 464c-114.875 0-208-93.125-208-208s93.125-208 208-208 208 93.125 208 208-93.125 208-208 208zM160 160h64v192h-64zM288 160h64v192h-64z"></path>
  </symbol>
  <symbol id="icon-film" viewBox="0 0 512 512">
    <path d="M0 64v384h512v-384h-512zM96 416h-64v-64h64v64zM96 288h-64v-64h64v64zM96 160h-64v-64h64v64zM384 416h-256v-320h256v320zM480 416h-64v-64h64v64zM480 288h-64v-64h64v64zM480 160h-64v-64h64v64zM192 160v192l128-96z"></path>
  </symbol>
  <symbol id="icon-three-dots" viewBox="0 0 640 640">
    <path d="M320.032 249.6c-38.88 0-70.432 31.52-70.432 70.4s31.552 70.4 70.432 70.4c38.88 0 70.368-31.52 70.368-70.4s-31.488-70.4-70.368-70.4zM96.032 249.6c-38.88 0-70.432 31.52-70.432 70.4s31.552 70.4 70.432 70.4c38.88 0 70.368-31.552 70.368-70.4s-31.488-70.4-70.368-70.4zM544.032 249.6c-38.88 0-70.432 31.52-70.432 70.4s31.552 70.4 70.432 70.4c38.88 0 70.368-31.52 70.368-70.4s-31.488-70.4-70.368-70.4z"></path>
  </symbol>
  <!-- Generated by IcoMoon.io -->
  <symbol id="icon-piano" viewBox="0 0 32 32">
    <path d="M0 28v-23h31v23h-31zM6 18h-1v-12h-4v21h5v-9zM12 18h-1v-12h-3v12h-1v9h5v-9zM18 18h-1v-12h-3v12h-1v9h5v-9zM20 6v12h-1v9h5v-9h-1v-12h-3zM30 6h-4v12h-1v9h5v-21z"></path>
  </symbol>
</svg>
