<svg width="1em" height="1em" viewBox="0 0 16 16" fill="currentColor"
  xmlns="http://www.w3.org/2000/svg">
  <symbol id="closed-lock" viewBox="0 0 401.998 401.998">
    <path d="M357.45,190.721c-5.331-5.33-11.8-7.993-19.417-7.993h-9.131v-54.821c0-35.022-12.559-65.093-37.685-90.218
		C266.093,12.563,236.025,0,200.998,0c-35.026,0-65.1,12.563-90.222,37.688C85.65,62.814,73.091,92.884,73.091,127.907v54.821
		h-9.135c-7.611,0-14.084,2.663-19.414,7.993c-5.33,5.326-7.994,11.799-7.994,19.417V374.59c0,7.611,2.665,14.086,7.994,19.417
		c5.33,5.325,11.803,7.991,19.414,7.991H338.04c7.617,0,14.085-2.663,19.417-7.991c5.325-5.331,7.994-11.806,7.994-19.417V210.135
		C365.455,202.523,362.782,196.051,357.45,190.721z M274.087,182.728H127.909v-54.821c0-20.175,7.139-37.402,21.414-51.675
		c14.277-14.275,31.501-21.411,51.678-21.411c20.179,0,37.399,7.135,51.677,21.411c14.271,14.272,21.409,31.5,21.409,51.675V182.728
		z"/>
  </symbol>
  <symbol id="icon-clock" viewBox="0 0 32 32">
    <path d="M16 0c-8.837 0-16 7.163-16 16s7.163 16 16 16 16-7.163 16-16-7.163-16-16-16zM20.586 23.414l-6.586-6.586v-8.828h4v7.172l5.414 5.414-2.829 2.829z"></path>
  </symbol>
  <symbol id="opened-lock" viewBox="0 0 32 32">
    <path d="M24 2c3.308 0 6 2.692 6 6v6h-4v-6c0-1.103-0.897-2-2-2h-4c-1.103 0-2 0.897-2 2v6h0.5c0.825 0 1.5 0.675 1.5 1.5v15c0 0.825-0.675 1.5-1.5 1.5h-17c-0.825 0-1.5-0.675-1.5-1.5v-15c0-0.825 0.675-1.5 1.5-1.5h12.5v-6c0-3.308 2.692-6 6-6h4z"></path>
  </symbol>
  <symbol id="check-circle" viewBox="0 0 16 16">
    <path d="M8 15A7 7 0 1 1 8 1a7 7 0 0 1 0 14zm0 1A8 8 0 1 0 8 0a8 8 0 0 0 0 16z"/>
    <path d="M10.97 4.97a.235.235 0 0 0-.02.022L7.477 9.417 5.384 7.323a.75.75 0 0 0-1.06 1.06L6.97 11.03a.75.75 0 0 0 1.079-.02l3.992-4.99a.75.75 0 0 0-1.071-1.05z"/>
  </symbol>
</svg>
